<svg enable-background="new 0 0 512 512" height="512" fill="#ff7eee"  viewBox="0 0 512 512" width="512" xmlns="http://www.w3.org/2000/svg"><path clip-rule="evenodd" d="m115.889 151.885-24.053-13.773c-1.512-.891-2.451-2.499-2.451-4.244v-29.306c0-1.745-.928-3.364-2.443-4.232l-10.239-5.899c-.742-.444-1.601-.662-2.432-.662-.854 0-1.689.218-2.451.662l-10.246 5.899c-1.516.869-2.44 2.488-2.44 4.232v29.306c0 1.745-.928 3.342-2.446 4.244l-24.061 13.773c-.747.458-1.675.458-2.429 0-.766-.421-1.22-1.234-1.22-2.107l-.089-62.733c0-1.759.938-3.375 2.447-4.247l40.483-23.298c.695-.403 1.46-.61 2.232-.643h.422c.776.033 1.541.24 2.229.643l40.48 23.299c1.52.873 2.443 2.488 2.443 4.247l-.078 62.733c0 .873-.469 1.686-1.216 2.107-.745.458-1.688.458-2.442-.001zm155.728-16.815v-46.753c0-1.748.932-3.36 2.443-4.232l40.503-23.373c1.508-.873 3.371-.876 4.887-.004l10.136 5.844c.532.307 1.187.307 1.715 0 .525-.307.854-.872.854-1.482v-62.127c0-.869.459-1.667 1.205-2.11.751-.437 1.675-.444 2.433-.022l24.098 13.448c1.552.861 2.51 2.499 2.51 4.27v116.541c0 1.749-.932 3.36-2.447 4.236l-40.502 23.388c-1.512.88-3.379.88-4.895 0l-40.495-23.388c-1.513-.876-2.445-2.488-2.445-4.236zm30.164-15.359c0 .436.232.839.609 1.057l13.906 8.014c.377.214.843.214 1.22 0l13.906-8.014c.377-.218.609-.621.609-1.057v-16.058c0-.436-.232-.843-.609-1.057l-13.902-8.033c-.381-.218-.847-.218-1.228 0l-13.906 8.033c-.373.214-.605.621-.605 1.057zm178.894-36.262-40.235-23.365c-1.513-.88-3.383-.883-4.898-.004l-40.487 23.369c-1.512.873-2.443 2.488-2.443 4.236v46.738c0 1.759.946 3.378 2.47 4.251l40.232 22.921c1.481.851 3.304.854 4.794.03l24.332-13.525c.772-.433 1.253-1.242 1.257-2.122.007-.88-.462-1.697-1.228-2.137l-40.738-23.384c-.758-.436-1.228-1.246-1.228-2.122v-14.645c0-.873.466-1.682 1.224-2.122l12.679-7.312c.754-.433 1.686-.433 2.439 0l12.687 7.312c.758.44 1.224 1.25 1.224 2.122v11.525c0 .873.469 1.682 1.227 2.118.758.433 1.689.433 2.447-.004l24.245-14.095c1.512-.876 2.437-2.487 2.437-4.232v-11.324c-.001-1.745-.925-3.357-2.437-4.229zm-327.892 54.992 40.48 23.387c1.516.873 3.378.873 4.894 0l40.495-23.387c1.512-.876 2.443-2.488 2.443-4.236v-46.771c0-1.745-.932-3.364-2.447-4.236l-40.491-23.365c-1.516-.876-3.378-.876-4.891 0l-40.483 23.365c-1.516.873-2.447 2.492-2.447 4.236v46.771c0 1.749.932 3.36 2.447 4.236zm241.162 107.882-124.834-72.14c-7.833-4.465-18.338-4.465-26.237 0l-124.838 72.14c-8.088 4.658-13.093 13.396-13.093 22.755v144.073c0 9.353 5.005 18.102 13.093 22.767l32.732 18.856c15.861 7.807 21.547 7.807 28.759 7.807 23.477 0 36.968-14.202 36.968-38.969v-142.239c0-2.012-1.641-3.597-3.618-3.597h-15.832c-2.011 0-3.626 1.585-3.626 3.597v142.239c0 10.979-11.363 21.905-29.916 12.639l-34.199-19.769c-1.205-.654-1.971-1.948-1.971-3.331v-144.073c0-1.367.766-2.728 1.978-3.423l124.764-72.015c1.156-.673 2.694-.673 3.844 0l124.79 71.996c1.193.714 1.937 2.029 1.937 3.441v144.073c0 1.383-.743 2.706-1.907 3.371l-124.841 72.06c-1.068.65-2.706.65-3.867 0l-32.022-19.015c-.953-.547-2.173-.754-3.098-.229-8.864 5.031-10.542 5.692-18.845 8.576-2.055.717-5.09 1.948 1.128 5.419l41.682 24.663c3.992 2.313 8.535 3.504 13.093 3.504 4.624 0 9.152-1.19 13.145-3.504l124.834-72.078c8.084-4.705 13.114-13.414 13.114-22.767v-144.072c-.002-9.359-5.033-18.079-13.117-22.755zm-94.497 153.085c-37.253 0-45.448-9.359-48.194-27.886-.318-1.978-2.012-3.453-4.044-3.453h-18.202c-2.255 0-4.065 1.804-4.065 4.07 0 23.705 12.904 51.983 74.506 51.983 44.605 0 70.182-17.559 70.182-48.231 0-30.415-20.553-38.503-63.809-44.232-43.719-5.785-48.161-8.768-48.161-19.007 0-8.436 3.763-19.717 36.144-19.717 28.918 0 39.578 6.231 43.962 25.716.385 1.837 2.056 3.176 3.948 3.176h18.271c1.135 0 2.211-.488 2.979-1.294.772-.854 1.183-1.967 1.075-3.135-2.827-33.579-25.143-49.226-70.236-49.226-40.14 0-64.078 16.94-64.078 45.333 0 30.813 23.819 39.334 62.333 43.134 46.092 4.525 49.67 11.256 49.67 20.327 0 15.737-12.624 22.442-42.281 22.442zm138.88-298.364c-.288-.17-.646-.17-.935 0l-7.767 4.484c-.292.167-.47.477-.47.81v8.979c0 .333.178.644.47.81l7.767 4.484c.288.167.646.167.935 0l7.773-4.484c.293-.166.47-.477.47-.81v-8.979c0-.333-.177-.643-.47-.81z" fill-rule="evenodd"/></svg>
